<svg id="Layer_1" data-name="Layer 1" xmlns="http://www.w3.org/2000/svg" viewBox="0 0 67.56 246.49"><defs><style>.cls-1{fill:#1c1c1c;}</style></defs><path class="cls-1" d="M37.46,239.12a.94.94,0,0,1-.68.44,6.94,6.94,0,0,1-5.21.05c-1.69-.8-3-2.74-3.11-6.38a3.38,3.38,0,0,1,.14-.92l1.31-1.74c.44-.57.83-1.19,1.25-1.78.84-1.17,1.6-2.41,2.39-3.63,1.49-2.48,2.94-5,4.19-7.62A94.34,94.34,0,0,0,47,170.66,89.4,89.4,0,0,0,42.4,147.1,85,85,0,0,0,37.71,136c-1.83-3.61-3.89-7.18-6.07-10.74-4.36-7.13-9.2-14.24-13.55-22-2.13-3.87-4.17-7.84-6-11.9l-.69-1.52c-.23-.51-.42-1-.63-1.54L9.57,85.29,9,83.74c-.2-.51-.37-1-.56-1.56L7.3,79A144.48,144.48,0,0,1,1.19,53.17L1,51.68c0-.24-.06-.47-.09-.71L.72,49.56.43,46.75C.19,44.87.12,43,0,41.1c0,0,0-1.11,0-3,.06-.92.12-2,.2-3.29,0-.62.08-1.28.13-2s.09-1.41.18-2.15A108.1,108.1,0,0,1,4.21,11.55c.36-1.25.71-2.38,1-3.4l.48-1.46Q6,6,6.21,5.4A32.75,32.75,0,0,1,7.94,1.72C8.92,0,9.6-.34,10,.3s.57,2.27.54,4.48c0,.55,0,1.14,0,1.76s0,1.28-.05,2c0,1.36-.1,2.83-.2,4.36.23-.61-.38,6.69-.19,14.11l.09,2.77c0,.91,0,1.81.13,2.69.14,1.74.27,3.37.38,4.77,0,.7.14,1.34.2,1.9s.14,1.07.19,1.47c.1.82.15,1.28.15,1.28.07.86.08,1.72.18,2.57L11.64,47l.28,2.56c0,.21,0,.42.07.63l.2,1.3.45,3a133,133,0,0,0,6,23.35c.61,1.92,1.42,3.76,2.16,5.63s1.59,3.69,2.42,5.52,1.76,3.61,2.67,5.4,1.88,3.55,2.91,5.31c4.08,7,8.79,13.94,13.22,21.3,2.22,3.68,4.38,7.47,6.31,11.44a97.55,97.55,0,0,1,5,12.36,100.9,100.9,0,0,1,4.81,26.12,105.27,105.27,0,0,1-10.42,51.55c-1.41,2.95-3,5.79-4.73,8.59-.89,1.38-1.74,2.78-2.7,4.11-.47.67-.91,1.36-1.41,2Z"/><path class="cls-1" d="M22,204.76a1,1,0,0,1,.24-.77,7,7,0,0,1,3.89-3.41c1.8-.52,4,0,6.54,2.78a2.73,2.73,0,0,1,.49.82,144.58,144.58,0,0,0,2,17.71c.17,1,.34,2,.53,3q.48,2.45,1,4.86l.26,1.11,0,.06c0,.05,0,.12-.09.25a.25.25,0,0,0,.09.24.28.28,0,0,0,.19.08c.14,0,.29,0,.48,0l8.65-3.4c3.05-1.19,6.14-2.37,9-3.39C64.7,221,67.93,220.55,67.53,222s-4.48,4.78-9.73,8.31c.64-.2-5.76,3.81-12.4,7.74l-2.48,1.46-.62.36-.3.18-.54.3c-.74.39-1.46.79-2.18,1.18l-8.51,4.56-.48.26-.24.12a.93.93,0,0,1-.08-.22c-.1-.31-.2-.61-.29-.91l-.54-1.69c-.34-1.08-.64-2-.89-2.8-.49-1.57-.78-2.47-.78-2.47-.09-.35-.2-.71-.29-1.05l-.25-1-.52-2-.25-1-.09-.37L26,232.7l-.26-1.12c-.18-.74-.33-1.49-.49-2.24s-.32-1.5-.47-2.25c-.22-1.08-.42-2.17-.61-3.26A158.56,158.56,0,0,1,22,204.76Z"/></svg>