<?xml version="1.0" encoding="UTF-8"?><svg id="a" xmlns="http://www.w3.org/2000/svg" xmlns:xlink="http://www.w3.org/1999/xlink" viewBox="0 0 3958.82 3958.82"><defs><style>.c{fill:url(#b);}.d{fill:#fff;}</style><linearGradient id="b" x1="1979.41" y1="0" x2="1979.41" y2="3958.82" gradientTransform="matrix(1, 0, 0, 1, 0, 0)" gradientUnits="userSpaceOnUse"><stop offset="0" stop-color="#00a0fd"/><stop offset="1" stop-color="#0e2de3"/></linearGradient></defs><path class="c" d="M3958.82,587.63C3958.82,247.43,3711.4,0,3711.4,0c0,313.87-248.65,436.57-437.04,484.59h0C2927.11,183.49,2475.12,0,1979.41,0S1031.72,183.49,684.45,484.6h0C496.08,436.57,247.43,313.87,247.43,0,247.43,0,0,247.43,0,587.63c0,173.75,67.63,426.29,154.78,623.41C55.17,1447.3,0,1706.9,0,1979.41c0,1093.2,886.21,1979.41,1979.41,1979.41s1979.41-886.21,1979.41-1979.41c0-272.51-55.17-532.11-154.78-768.37,87.16-197.12,154.78-449.66,154.78-623.41Z"/><g><path class="d" d="M1624.6,2372.34c-141.12-51.92-453.85-184.73-808.88-449.06-69.59-51.81-168.38-3.81-171.01,82.91-9.87,325.33,31.15,921.34,464.13,921.34s552.08-281.66,583.72-433.63c10.78-51.76-18.34-103.3-67.96-121.56Z"/><path class="d" d="M3314.11,2006.21c-2.63-86.72-101.42-134.72-171.02-82.91-354.99,264.32-667.73,397.13-808.86,449.04-49.63,18.26-78.75,69.79-67.96,121.56,31.64,151.97,148.93,433.63,583.72,433.63s473.96-595.97,464.12-921.31Z"/></g></svg>